{
	"asset":{
		"generator":"Khronos glTF Blender I/O v4.3.47",
		"version":"2.0"
	},
	"scene":0,
	"scenes":[
		{
			"name":"Scene",
			"nodes":[
				2
			]
		}
	],
	"nodes":[
		{
			"name":"piece_bone"
		},
		{
			"mesh":0,
			"name":"Roundcube.005",
			"skin":0
		},
		{
			"children":[
				1,
				0
			],
			"name":"Armature.002",
			"scale":[
				1.498659372329712,
				1.498659372329712,
				1.498659372329712
			]
		}
	],
	"animations":[
		{
			"channels":[
				{
					"sampler":0,
					"target":{
						"node":0,
						"path":"translation"
					}
				},
				{
					"sampler":1,
					"target":{
						"node":0,
						"path":"rotation"
					}
				},
				{
					"sampler":2,
					"target":{
						"node":0,
						"path":"scale"
					}
				}
			],
			"name":"Lift",
			"samplers":[
				{
					"input":7,
					"interpolation":"LINEAR",
					"output":8
				},
				{
					"input":9,
					"interpolation":"STEP",
					"output":10
				},
				{
					"input":9,
					"interpolation":"STEP",
					"output":11
				}
			]
		},
		{
			"channels":[
				{
					"sampler":0,
					"target":{
						"node":0,
						"path":"translation"
					}
				},
				{
					"sampler":1,
					"target":{
						"node":0,
						"path":"rotation"
					}
				},
				{
					"sampler":2,
					"target":{
						"node":0,
						"path":"scale"
					}
				}
			],
			"name":"Settle",
			"samplers":[
				{
					"input":12,
					"interpolation":"STEP",
					"output":13
				},
				{
					"input":14,
					"interpolation":"LINEAR",
					"output":15
				},
				{
					"input":12,
					"interpolation":"STEP",
					"output":16
				}
			]
		}
	],
	"materials":[
		{
			"doubleSided":true,
			"name":"Material",
			"pbrMetallicRoughness":{
				"baseColorFactor":[
					0.800000011920929,
					0.800000011920929,
					0.800000011920929,
					1
				],
				"metallicFactor":0,
				"roughnessFactor":0.5
			}
		}
	],
	"meshes":[
		{
			"name":"Roundcube.005",
			"primitives":[
				{
					"attributes":{
						"POSITION":0,
						"NORMAL":1,
						"TEXCOORD_0":2,
						"JOINTS_0":3,
						"WEIGHTS_0":4
					},
					"indices":5,
					"material":0
				}
			]
		}
	],
	"skins":[
		{
			"inverseBindMatrices":6,
			"joints":[
				0
			],
			"name":"Armature.002"
		}
	],
	"accessors":[
		{
			"bufferView":0,
			"componentType":5126,
			"count":14390,
			"max":[
				0.3435315489768982,
				1.4313864707946777,
				0.34545713663101196
			],
			"min":[
				-0.347382515668869,
				-1.8741602048066852e-08,
				-0.44383442401885986
			],
			"type":"VEC3"
		},
		{
			"bufferView":1,
			"componentType":5126,
			"count":14390,
			"type":"VEC3"
		},
		{
			"bufferView":2,
			"componentType":5126,
			"count":14390,
			"type":"VEC2"
		},
		{
			"bufferView":3,
			"componentType":5121,
			"count":14390,
			"type":"VEC4"
		},
		{
			"bufferView":4,
			"componentType":5126,
			"count":14390,
			"type":"VEC4"
		},
		{
			"bufferView":5,
			"componentType":5123,
			"count":86208,
			"type":"SCALAR"
		},
		{
			"bufferView":6,
			"componentType":5126,
			"count":1,
			"type":"MAT4"
		},
		{
			"bufferView":7,
			"componentType":5126,
			"count":20,
			"max":[
				0.8333333333333334
			],
			"min":[
				0.041666666666666664
			],
			"type":"SCALAR"
		},
		{
			"bufferView":8,
			"componentType":5126,
			"count":20,
			"type":"VEC3"
		},
		{
			"bufferView":9,
			"componentType":5126,
			"count":2,
			"max":[
				0.8333333333333334
			],
			"min":[
				0.041666666666666664
			],
			"type":"SCALAR"
		},
		{
			"bufferView":10,
			"componentType":5126,
			"count":2,
			"type":"VEC4"
		},
		{
			"bufferView":11,
			"componentType":5126,
			"count":2,
			"type":"VEC3"
		},
		{
			"bufferView":12,
			"componentType":5126,
			"count":2,
			"max":[
				0.4166666666666667
			],
			"min":[
				0.041666666666666664
			],
			"type":"SCALAR"
		},
		{
			"bufferView":13,
			"componentType":5126,
			"count":2,
			"type":"VEC3"
		},
		{
			"bufferView":14,
			"componentType":5126,
			"count":10,
			"max":[
				0.4166666666666667
			],
			"min":[
				0.041666666666666664
			],
			"type":"SCALAR"
		},
		{
			"bufferView":15,
			"componentType":5126,
			"count":10,
			"type":"VEC4"
		},
		{
			"bufferView":16,
			"componentType":5126,
			"count":2,
			"type":"VEC3"
		}
	],
	"bufferViews":[
		{
			"buffer":0,
			"byteLength":172680,
			"byteOffset":0,
			"target":34962
		},
		{
			"buffer":0,
			"byteLength":172680,
			"byteOffset":172680,
			"target":34962
		},
		{
			"buffer":0,
			"byteLength":115120,
			"byteOffset":345360,
			"target":34962
		},
		{
			"buffer":0,
			"byteLength":57560,
			"byteOffset":460480,
			"target":34962
		},
		{
			"buffer":0,
			"byteLength":230240,
			"byteOffset":518040,
			"target":34962
		},
		{
			"buffer":0,
			"byteLength":172416,
			"byteOffset":748280,
			"target":34963
		},
		{
			"buffer":0,
			"byteLength":64,
			"byteOffset":920696
		},
		{
			"buffer":0,
			"byteLength":80,
			"byteOffset":920760
		},
		{
			"buffer":0,
			"byteLength":240,
			"byteOffset":920840
		},
		{
			"buffer":0,
			"byteLength":8,
			"byteOffset":921080
		},
		{
			"buffer":0,
			"byteLength":32,
			"byteOffset":921088
		},
		{
			"buffer":0,
			"byteLength":24,
			"byteOffset":921120
		},
		{
			"buffer":0,
			"byteLength":8,
			"byteOffset":921144
		},
		{
			"buffer":0,
			"byteLength":24,
			"byteOffset":921152
		},
		{
			"buffer":0,
			"byteLength":40,
			"byteOffset":921176
		},
		{
			"buffer":0,
			"byteLength":160,
			"byteOffset":921216
		},
		{
			"buffer":0,
			"byteLength":24,
			"byteOffset":921376
		}
	],
	"buffers":[
		{
			"byteLength":921400,
			"uri":"knight.bin"
		}
	]
}
