{
	"asset":{
		"generator":"Khronos glTF Blender I/O v4.3.47",
		"version":"2.0"
	},
	"scene":0,
	"scenes":[
		{
			"name":"Scene",
			"nodes":[
				2
			]
		}
	],
	"nodes":[
		{
			"name":"piece_bone"
		},
		{
			"mesh":0,
			"name":"Roundcube.003",
			"skin":0
		},
		{
			"children":[
				1,
				0
			],
			"name":"Armature.004",
			"scale":[
				1.8994150161743164,
				1.8994150161743164,
				1.8994150161743164
			]
		}
	],
	"animations":[
		{
			"channels":[
				{
					"sampler":0,
					"target":{
						"node":0,
						"path":"translation"
					}
				},
				{
					"sampler":1,
					"target":{
						"node":0,
						"path":"rotation"
					}
				},
				{
					"sampler":2,
					"target":{
						"node":0,
						"path":"scale"
					}
				}
			],
			"name":"Lift",
			"samplers":[
				{
					"input":7,
					"interpolation":"LINEAR",
					"output":8
				},
				{
					"input":9,
					"interpolation":"STEP",
					"output":10
				},
				{
					"input":9,
					"interpolation":"STEP",
					"output":11
				}
			]
		},
		{
			"channels":[
				{
					"sampler":0,
					"target":{
						"node":0,
						"path":"translation"
					}
				},
				{
					"sampler":1,
					"target":{
						"node":0,
						"path":"rotation"
					}
				},
				{
					"sampler":2,
					"target":{
						"node":0,
						"path":"scale"
					}
				}
			],
			"name":"Settle",
			"samplers":[
				{
					"input":12,
					"interpolation":"STEP",
					"output":13
				},
				{
					"input":14,
					"interpolation":"LINEAR",
					"output":15
				},
				{
					"input":12,
					"interpolation":"STEP",
					"output":16
				}
			]
		}
	],
	"materials":[
		{
			"doubleSided":true,
			"name":"Material",
			"pbrMetallicRoughness":{
				"baseColorFactor":[
					0.800000011920929,
					0.800000011920929,
					0.800000011920929,
					1
				],
				"metallicFactor":0,
				"roughnessFactor":0.5
			}
		}
	],
	"meshes":[
		{
			"name":"Roundcube.003",
			"primitives":[
				{
					"attributes":{
						"POSITION":0,
						"NORMAL":1,
						"TEXCOORD_0":2,
						"JOINTS_0":3,
						"WEIGHTS_0":4
					},
					"indices":5,
					"material":0
				}
			]
		}
	],
	"skins":[
		{
			"inverseBindMatrices":6,
			"joints":[
				0
			],
			"name":"Armature.004"
		}
	],
	"accessors":[
		{
			"bufferView":0,
			"componentType":5126,
			"count":12370,
			"max":[
				0.38461220264434814,
				1.8064305782318115,
				0.38653767108917236
			],
			"min":[
				-0.3884631395339966,
				-1.1920928955078125e-07,
				-0.38653767108917236
			],
			"type":"VEC3"
		},
		{
			"bufferView":1,
			"componentType":5126,
			"count":12370,
			"type":"VEC3"
		},
		{
			"bufferView":2,
			"componentType":5126,
			"count":12370,
			"type":"VEC2"
		},
		{
			"bufferView":3,
			"componentType":5121,
			"count":12370,
			"type":"VEC4"
		},
		{
			"bufferView":4,
			"componentType":5126,
			"count":12370,
			"type":"VEC4"
		},
		{
			"bufferView":5,
			"componentType":5123,
			"count":73344,
			"type":"SCALAR"
		},
		{
			"bufferView":6,
			"componentType":5126,
			"count":1,
			"type":"MAT4"
		},
		{
			"bufferView":7,
			"componentType":5126,
			"count":20,
			"max":[
				0.8333333333333334
			],
			"min":[
				0.041666666666666664
			],
			"type":"SCALAR"
		},
		{
			"bufferView":8,
			"componentType":5126,
			"count":20,
			"type":"VEC3"
		},
		{
			"bufferView":9,
			"componentType":5126,
			"count":2,
			"max":[
				0.8333333333333334
			],
			"min":[
				0.041666666666666664
			],
			"type":"SCALAR"
		},
		{
			"bufferView":10,
			"componentType":5126,
			"count":2,
			"type":"VEC4"
		},
		{
			"bufferView":11,
			"componentType":5126,
			"count":2,
			"type":"VEC3"
		},
		{
			"bufferView":12,
			"componentType":5126,
			"count":2,
			"max":[
				0.4166666666666667
			],
			"min":[
				0.041666666666666664
			],
			"type":"SCALAR"
		},
		{
			"bufferView":13,
			"componentType":5126,
			"count":2,
			"type":"VEC3"
		},
		{
			"bufferView":14,
			"componentType":5126,
			"count":10,
			"max":[
				0.4166666666666667
			],
			"min":[
				0.041666666666666664
			],
			"type":"SCALAR"
		},
		{
			"bufferView":15,
			"componentType":5126,
			"count":10,
			"type":"VEC4"
		},
		{
			"bufferView":16,
			"componentType":5126,
			"count":2,
			"type":"VEC3"
		}
	],
	"bufferViews":[
		{
			"buffer":0,
			"byteLength":148440,
			"byteOffset":0,
			"target":34962
		},
		{
			"buffer":0,
			"byteLength":148440,
			"byteOffset":148440,
			"target":34962
		},
		{
			"buffer":0,
			"byteLength":98960,
			"byteOffset":296880,
			"target":34962
		},
		{
			"buffer":0,
			"byteLength":49480,
			"byteOffset":395840,
			"target":34962
		},
		{
			"buffer":0,
			"byteLength":197920,
			"byteOffset":445320,
			"target":34962
		},
		{
			"buffer":0,
			"byteLength":146688,
			"byteOffset":643240,
			"target":34963
		},
		{
			"buffer":0,
			"byteLength":64,
			"byteOffset":789928
		},
		{
			"buffer":0,
			"byteLength":80,
			"byteOffset":789992
		},
		{
			"buffer":0,
			"byteLength":240,
			"byteOffset":790072
		},
		{
			"buffer":0,
			"byteLength":8,
			"byteOffset":790312
		},
		{
			"buffer":0,
			"byteLength":32,
			"byteOffset":790320
		},
		{
			"buffer":0,
			"byteLength":24,
			"byteOffset":790352
		},
		{
			"buffer":0,
			"byteLength":8,
			"byteOffset":790376
		},
		{
			"buffer":0,
			"byteLength":24,
			"byteOffset":790384
		},
		{
			"buffer":0,
			"byteLength":40,
			"byteOffset":790408
		},
		{
			"buffer":0,
			"byteLength":160,
			"byteOffset":790448
		},
		{
			"buffer":0,
			"byteLength":24,
			"byteOffset":790608
		}
	],
	"buffers":[
		{
			"byteLength":790632,
			"uri":"queen.bin"
		}
	]
}
