{
	"asset":{
		"generator":"Khronos glTF Blender I/O v4.3.47",
		"version":"2.0"
	},
	"scene":0,
	"scenes":[
		{
			"name":"Scene",
			"nodes":[
				2
			]
		}
	],
	"nodes":[
		{
			"name":"piece_bone"
		},
		{
			"mesh":0,
			"name":"Cube.002",
			"skin":0
		},
		{
			"children":[
				1,
				0
			],
			"name":"Armature.005"
		}
	],
	"animations":[
		{
			"channels":[
				{
					"sampler":0,
					"target":{
						"node":0,
						"path":"translation"
					}
				},
				{
					"sampler":1,
					"target":{
						"node":0,
						"path":"rotation"
					}
				},
				{
					"sampler":2,
					"target":{
						"node":0,
						"path":"scale"
					}
				}
			],
			"name":"Lift",
			"samplers":[
				{
					"input":7,
					"interpolation":"LINEAR",
					"output":8
				},
				{
					"input":9,
					"interpolation":"STEP",
					"output":10
				},
				{
					"input":9,
					"interpolation":"STEP",
					"output":11
				}
			]
		},
		{
			"channels":[
				{
					"sampler":0,
					"target":{
						"node":0,
						"path":"translation"
					}
				},
				{
					"sampler":1,
					"target":{
						"node":0,
						"path":"rotation"
					}
				},
				{
					"sampler":2,
					"target":{
						"node":0,
						"path":"scale"
					}
				}
			],
			"name":"Settle",
			"samplers":[
				{
					"input":12,
					"interpolation":"STEP",
					"output":13
				},
				{
					"input":14,
					"interpolation":"LINEAR",
					"output":15
				},
				{
					"input":12,
					"interpolation":"STEP",
					"output":16
				}
			]
		}
	],
	"materials":[
		{
			"doubleSided":true,
			"name":"Material",
			"pbrMetallicRoughness":{
				"baseColorFactor":[
					0.800000011920929,
					0.800000011920929,
					0.800000011920929,
					1
				],
				"metallicFactor":0,
				"roughnessFactor":0.5
			}
		}
	],
	"meshes":[
		{
			"name":"Cube.001",
			"primitives":[
				{
					"attributes":{
						"POSITION":0,
						"NORMAL":1,
						"TEXCOORD_0":2,
						"JOINTS_0":3,
						"WEIGHTS_0":4
					},
					"indices":5,
					"material":0
				}
			]
		}
	],
	"skins":[
		{
			"inverseBindMatrices":6,
			"joints":[
				0
			],
			"name":"Armature.005"
		}
	],
	"accessors":[
		{
			"bufferView":0,
			"componentType":5126,
			"count":3773,
			"max":[
				0.3858412802219391,
				2.0388143062591553,
				0.39040234684944153
			],
			"min":[
				-0.38723406195640564,
				0,
				-0.3826729953289032
			],
			"type":"VEC3"
		},
		{
			"bufferView":1,
			"componentType":5126,
			"count":3773,
			"type":"VEC3"
		},
		{
			"bufferView":2,
			"componentType":5126,
			"count":3773,
			"type":"VEC2"
		},
		{
			"bufferView":3,
			"componentType":5121,
			"count":3773,
			"type":"VEC4"
		},
		{
			"bufferView":4,
			"componentType":5126,
			"count":3773,
			"type":"VEC4"
		},
		{
			"bufferView":5,
			"componentType":5123,
			"count":21696,
			"type":"SCALAR"
		},
		{
			"bufferView":6,
			"componentType":5126,
			"count":1,
			"type":"MAT4"
		},
		{
			"bufferView":7,
			"componentType":5126,
			"count":20,
			"max":[
				0.8333333333333334
			],
			"min":[
				0.041666666666666664
			],
			"type":"SCALAR"
		},
		{
			"bufferView":8,
			"componentType":5126,
			"count":20,
			"type":"VEC3"
		},
		{
			"bufferView":9,
			"componentType":5126,
			"count":2,
			"max":[
				0.8333333333333334
			],
			"min":[
				0.041666666666666664
			],
			"type":"SCALAR"
		},
		{
			"bufferView":10,
			"componentType":5126,
			"count":2,
			"type":"VEC4"
		},
		{
			"bufferView":11,
			"componentType":5126,
			"count":2,
			"type":"VEC3"
		},
		{
			"bufferView":12,
			"componentType":5126,
			"count":2,
			"max":[
				0.4166666666666667
			],
			"min":[
				0.041666666666666664
			],
			"type":"SCALAR"
		},
		{
			"bufferView":13,
			"componentType":5126,
			"count":2,
			"type":"VEC3"
		},
		{
			"bufferView":14,
			"componentType":5126,
			"count":10,
			"max":[
				0.4166666666666667
			],
			"min":[
				0.041666666666666664
			],
			"type":"SCALAR"
		},
		{
			"bufferView":15,
			"componentType":5126,
			"count":10,
			"type":"VEC4"
		},
		{
			"bufferView":16,
			"componentType":5126,
			"count":2,
			"type":"VEC3"
		}
	],
	"bufferViews":[
		{
			"buffer":0,
			"byteLength":45276,
			"byteOffset":0,
			"target":34962
		},
		{
			"buffer":0,
			"byteLength":45276,
			"byteOffset":45276,
			"target":34962
		},
		{
			"buffer":0,
			"byteLength":30184,
			"byteOffset":90552,
			"target":34962
		},
		{
			"buffer":0,
			"byteLength":15092,
			"byteOffset":120736,
			"target":34962
		},
		{
			"buffer":0,
			"byteLength":60368,
			"byteOffset":135828,
			"target":34962
		},
		{
			"buffer":0,
			"byteLength":43392,
			"byteOffset":196196,
			"target":34963
		},
		{
			"buffer":0,
			"byteLength":64,
			"byteOffset":239588
		},
		{
			"buffer":0,
			"byteLength":80,
			"byteOffset":239652
		},
		{
			"buffer":0,
			"byteLength":240,
			"byteOffset":239732
		},
		{
			"buffer":0,
			"byteLength":8,
			"byteOffset":239972
		},
		{
			"buffer":0,
			"byteLength":32,
			"byteOffset":239980
		},
		{
			"buffer":0,
			"byteLength":24,
			"byteOffset":240012
		},
		{
			"buffer":0,
			"byteLength":8,
			"byteOffset":240036
		},
		{
			"buffer":0,
			"byteLength":24,
			"byteOffset":240044
		},
		{
			"buffer":0,
			"byteLength":40,
			"byteOffset":240068
		},
		{
			"buffer":0,
			"byteLength":160,
			"byteOffset":240108
		},
		{
			"buffer":0,
			"byteLength":24,
			"byteOffset":240268
		}
	],
	"buffers":[
		{
			"byteLength":240292,
			"uri":"king.bin"
		}
	]
}
