{
	"asset":{
		"generator":"Khronos glTF Blender I/O v4.3.47",
		"version":"2.0"
	},
	"scene":0,
	"scenes":[
		{
			"name":"Scene",
			"nodes":[
				2
			]
		}
	],
	"nodes":[
		{
			"name":"piece_bone",
			"translation":[
				0,
				0.0026007890701293945,
				0
			]
		},
		{
			"mesh":0,
			"name":"Vert.011",
			"skin":0
		},
		{
			"children":[
				1,
				0
			],
			"name":"Armature"
		}
	],
	"animations":[
		{
			"channels":[
				{
					"sampler":0,
					"target":{
						"node":0,
						"path":"translation"
					}
				},
				{
					"sampler":1,
					"target":{
						"node":0,
						"path":"rotation"
					}
				},
				{
					"sampler":2,
					"target":{
						"node":0,
						"path":"scale"
					}
				}
			],
			"name":"Lift",
			"samplers":[
				{
					"input":6,
					"interpolation":"LINEAR",
					"output":7
				},
				{
					"input":8,
					"interpolation":"STEP",
					"output":9
				},
				{
					"input":8,
					"interpolation":"STEP",
					"output":10
				}
			]
		},
		{
			"channels":[
				{
					"sampler":0,
					"target":{
						"node":0,
						"path":"translation"
					}
				},
				{
					"sampler":1,
					"target":{
						"node":0,
						"path":"rotation"
					}
				},
				{
					"sampler":2,
					"target":{
						"node":0,
						"path":"scale"
					}
				}
			],
			"name":"Settle",
			"samplers":[
				{
					"input":11,
					"interpolation":"STEP",
					"output":12
				},
				{
					"input":13,
					"interpolation":"LINEAR",
					"output":14
				},
				{
					"input":11,
					"interpolation":"STEP",
					"output":15
				}
			]
		}
	],
	"materials":[
		{
			"doubleSided":true,
			"name":"Material",
			"pbrMetallicRoughness":{
				"baseColorFactor":[
					0.800000011920929,
					0.800000011920929,
					0.800000011920929,
					1
				],
				"metallicFactor":0,
				"roughnessFactor":0.5
			}
		}
	],
	"meshes":[
		{
			"name":"Vert.011",
			"primitives":[
				{
					"attributes":{
						"POSITION":0,
						"NORMAL":1,
						"JOINTS_0":2,
						"WEIGHTS_0":3
					},
					"indices":4,
					"material":0
				}
			]
		}
	],
	"skins":[
		{
			"inverseBindMatrices":5,
			"joints":[
				0
			],
			"name":"Armature"
		}
	],
	"accessors":[
		{
			"bufferView":0,
			"componentType":5126,
			"count":1936,
			"max":[
				0.3220709562301636,
				1.0522847175598145,
				0.322070837020874
			],
			"min":[
				-0.3220709562301636,
				0,
				-0.3220709562301636
			],
			"type":"VEC3"
		},
		{
			"bufferView":1,
			"componentType":5126,
			"count":1936,
			"type":"VEC3"
		},
		{
			"bufferView":2,
			"componentType":5121,
			"count":1936,
			"type":"VEC4"
		},
		{
			"bufferView":3,
			"componentType":5126,
			"count":1936,
			"type":"VEC4"
		},
		{
			"bufferView":4,
			"componentType":5123,
			"count":11520,
			"type":"SCALAR"
		},
		{
			"bufferView":5,
			"componentType":5126,
			"count":1,
			"type":"MAT4"
		},
		{
			"bufferView":6,
			"componentType":5126,
			"count":20,
			"max":[
				0.8333333333333334
			],
			"min":[
				0.041666666666666664
			],
			"type":"SCALAR"
		},
		{
			"bufferView":7,
			"componentType":5126,
			"count":20,
			"type":"VEC3"
		},
		{
			"bufferView":8,
			"componentType":5126,
			"count":2,
			"max":[
				0.8333333333333334
			],
			"min":[
				0.041666666666666664
			],
			"type":"SCALAR"
		},
		{
			"bufferView":9,
			"componentType":5126,
			"count":2,
			"type":"VEC4"
		},
		{
			"bufferView":10,
			"componentType":5126,
			"count":2,
			"type":"VEC3"
		},
		{
			"bufferView":11,
			"componentType":5126,
			"count":2,
			"max":[
				0.4166666666666667
			],
			"min":[
				0.041666666666666664
			],
			"type":"SCALAR"
		},
		{
			"bufferView":12,
			"componentType":5126,
			"count":2,
			"type":"VEC3"
		},
		{
			"bufferView":13,
			"componentType":5126,
			"count":10,
			"max":[
				0.4166666666666667
			],
			"min":[
				0.041666666666666664
			],
			"type":"SCALAR"
		},
		{
			"bufferView":14,
			"componentType":5126,
			"count":10,
			"type":"VEC4"
		},
		{
			"bufferView":15,
			"componentType":5126,
			"count":2,
			"type":"VEC3"
		}
	],
	"bufferViews":[
		{
			"buffer":0,
			"byteLength":23232,
			"byteOffset":0,
			"target":34962
		},
		{
			"buffer":0,
			"byteLength":23232,
			"byteOffset":23232,
			"target":34962
		},
		{
			"buffer":0,
			"byteLength":7744,
			"byteOffset":46464,
			"target":34962
		},
		{
			"buffer":0,
			"byteLength":30976,
			"byteOffset":54208,
			"target":34962
		},
		{
			"buffer":0,
			"byteLength":23040,
			"byteOffset":85184,
			"target":34963
		},
		{
			"buffer":0,
			"byteLength":64,
			"byteOffset":108224
		},
		{
			"buffer":0,
			"byteLength":80,
			"byteOffset":108288
		},
		{
			"buffer":0,
			"byteLength":240,
			"byteOffset":108368
		},
		{
			"buffer":0,
			"byteLength":8,
			"byteOffset":108608
		},
		{
			"buffer":0,
			"byteLength":32,
			"byteOffset":108616
		},
		{
			"buffer":0,
			"byteLength":24,
			"byteOffset":108648
		},
		{
			"buffer":0,
			"byteLength":8,
			"byteOffset":108672
		},
		{
			"buffer":0,
			"byteLength":24,
			"byteOffset":108680
		},
		{
			"buffer":0,
			"byteLength":40,
			"byteOffset":108704
		},
		{
			"buffer":0,
			"byteLength":160,
			"byteOffset":108744
		},
		{
			"buffer":0,
			"byteLength":24,
			"byteOffset":108904
		}
	],
	"buffers":[
		{
			"byteLength":108928,
			"uri":"pawn.bin"
		}
	]
}
