{
	"asset":{
		"generator":"Khronos glTF Blender I/O v4.3.47",
		"version":"2.0"
	},
	"scene":0,
	"scenes":[
		{
			"name":"Scene",
			"nodes":[
				2
			]
		}
	],
	"nodes":[
		{
			"name":"piece_bone"
		},
		{
			"mesh":0,
			"name":"Vert.002",
			"skin":0
		},
		{
			"children":[
				1,
				0
			],
			"name":"Armature.003",
			"scale":[
				1.6346232891082764,
				1.6346232891082764,
				1.6346232891082764
			]
		}
	],
	"animations":[
		{
			"channels":[
				{
					"sampler":0,
					"target":{
						"node":0,
						"path":"translation"
					}
				},
				{
					"sampler":1,
					"target":{
						"node":0,
						"path":"rotation"
					}
				},
				{
					"sampler":2,
					"target":{
						"node":0,
						"path":"scale"
					}
				}
			],
			"name":"Lift",
			"samplers":[
				{
					"input":7,
					"interpolation":"LINEAR",
					"output":8
				},
				{
					"input":9,
					"interpolation":"STEP",
					"output":10
				},
				{
					"input":9,
					"interpolation":"STEP",
					"output":11
				}
			]
		},
		{
			"channels":[
				{
					"sampler":0,
					"target":{
						"node":0,
						"path":"translation"
					}
				},
				{
					"sampler":1,
					"target":{
						"node":0,
						"path":"rotation"
					}
				},
				{
					"sampler":2,
					"target":{
						"node":0,
						"path":"scale"
					}
				}
			],
			"name":"Settle",
			"samplers":[
				{
					"input":12,
					"interpolation":"STEP",
					"output":13
				},
				{
					"input":14,
					"interpolation":"LINEAR",
					"output":15
				},
				{
					"input":12,
					"interpolation":"STEP",
					"output":16
				}
			]
		}
	],
	"materials":[
		{
			"doubleSided":true,
			"name":"Material",
			"pbrMetallicRoughness":{
				"baseColorFactor":[
					0.800000011920929,
					0.800000011920929,
					0.800000011920929,
					1
				],
				"metallicFactor":0,
				"roughnessFactor":0.5
			}
		}
	],
	"meshes":[
		{
			"name":"Vert.002",
			"primitives":[
				{
					"attributes":{
						"POSITION":0,
						"NORMAL":1,
						"TEXCOORD_0":2,
						"JOINTS_0":3,
						"WEIGHTS_0":4
					},
					"indices":5,
					"material":0
				}
			]
		}
	],
	"skins":[
		{
			"inverseBindMatrices":6,
			"joints":[
				0
			],
			"name":"Armature.003"
		}
	],
	"accessors":[
		{
			"bufferView":0,
			"componentType":5126,
			"count":2977,
			"max":[
				0.34545692801475525,
				1.550214171409607,
				0.34545695781707764
			],
			"min":[
				-0.34545692801475525,
				0,
				-0.34545689821243286
			],
			"type":"VEC3"
		},
		{
			"bufferView":1,
			"componentType":5126,
			"count":2977,
			"type":"VEC3"
		},
		{
			"bufferView":2,
			"componentType":5126,
			"count":2977,
			"type":"VEC2"
		},
		{
			"bufferView":3,
			"componentType":5121,
			"count":2977,
			"type":"VEC4"
		},
		{
			"bufferView":4,
			"componentType":5126,
			"count":2977,
			"type":"VEC4"
		},
		{
			"bufferView":5,
			"componentType":5123,
			"count":16422,
			"type":"SCALAR"
		},
		{
			"bufferView":6,
			"componentType":5126,
			"count":1,
			"type":"MAT4"
		},
		{
			"bufferView":7,
			"componentType":5126,
			"count":20,
			"max":[
				0.8333333333333334
			],
			"min":[
				0.041666666666666664
			],
			"type":"SCALAR"
		},
		{
			"bufferView":8,
			"componentType":5126,
			"count":20,
			"type":"VEC3"
		},
		{
			"bufferView":9,
			"componentType":5126,
			"count":2,
			"max":[
				0.8333333333333334
			],
			"min":[
				0.041666666666666664
			],
			"type":"SCALAR"
		},
		{
			"bufferView":10,
			"componentType":5126,
			"count":2,
			"type":"VEC4"
		},
		{
			"bufferView":11,
			"componentType":5126,
			"count":2,
			"type":"VEC3"
		},
		{
			"bufferView":12,
			"componentType":5126,
			"count":2,
			"max":[
				0.4166666666666667
			],
			"min":[
				0.041666666666666664
			],
			"type":"SCALAR"
		},
		{
			"bufferView":13,
			"componentType":5126,
			"count":2,
			"type":"VEC3"
		},
		{
			"bufferView":14,
			"componentType":5126,
			"count":10,
			"max":[
				0.4166666666666667
			],
			"min":[
				0.041666666666666664
			],
			"type":"SCALAR"
		},
		{
			"bufferView":15,
			"componentType":5126,
			"count":10,
			"type":"VEC4"
		},
		{
			"bufferView":16,
			"componentType":5126,
			"count":2,
			"type":"VEC3"
		}
	],
	"bufferViews":[
		{
			"buffer":0,
			"byteLength":35724,
			"byteOffset":0,
			"target":34962
		},
		{
			"buffer":0,
			"byteLength":35724,
			"byteOffset":35724,
			"target":34962
		},
		{
			"buffer":0,
			"byteLength":23816,
			"byteOffset":71448,
			"target":34962
		},
		{
			"buffer":0,
			"byteLength":11908,
			"byteOffset":95264,
			"target":34962
		},
		{
			"buffer":0,
			"byteLength":47632,
			"byteOffset":107172,
			"target":34962
		},
		{
			"buffer":0,
			"byteLength":32844,
			"byteOffset":154804,
			"target":34963
		},
		{
			"buffer":0,
			"byteLength":64,
			"byteOffset":187648
		},
		{
			"buffer":0,
			"byteLength":80,
			"byteOffset":187712
		},
		{
			"buffer":0,
			"byteLength":240,
			"byteOffset":187792
		},
		{
			"buffer":0,
			"byteLength":8,
			"byteOffset":188032
		},
		{
			"buffer":0,
			"byteLength":32,
			"byteOffset":188040
		},
		{
			"buffer":0,
			"byteLength":24,
			"byteOffset":188072
		},
		{
			"buffer":0,
			"byteLength":8,
			"byteOffset":188096
		},
		{
			"buffer":0,
			"byteLength":24,
			"byteOffset":188104
		},
		{
			"buffer":0,
			"byteLength":40,
			"byteOffset":188128
		},
		{
			"buffer":0,
			"byteLength":160,
			"byteOffset":188168
		},
		{
			"buffer":0,
			"byteLength":24,
			"byteOffset":188328
		}
	],
	"buffers":[
		{
			"byteLength":188352,
			"uri":"bishop.bin"
		}
	]
}
